<svg xmlns="http://www.w3.org/2000/svg" xmlns:xlink="http://www.w3.org/1999/xlink" preserveAspectRatio="xMidYMid" width="72" height="72" viewBox="0 0 48 48">
  <defs>
    <style>
      .cls-1 {
        fill: #1b1b1b;
        fill-rule: evenodd;
      }
    </style>
  </defs>
  <path d="M24.000,48.000 C10.767,48.000 0.000,37.233 0.000,24.000 C0.000,10.767 10.767,0.000 24.000,0.000 C37.233,0.000 48.000,10.767 48.000,24.000 C48.000,37.233 37.233,48.000 24.000,48.000 ZM24.000,2.000 C11.869,2.000 2.000,11.869 2.000,24.000 C2.000,36.131 11.869,46.000 24.000,46.000 C36.131,46.000 46.000,36.131 46.000,24.000 C46.000,11.869 36.131,2.000 24.000,2.000 ZM35.000,25.000 L15.414,25.000 L19.707,29.293 C20.098,29.684 20.098,30.316 19.707,30.707 C19.512,30.902 19.256,31.000 19.000,31.000 C18.744,31.000 18.488,30.902 18.293,30.707 L12.293,24.707 C12.201,24.615 12.128,24.505 12.077,24.382 C11.976,24.138 11.976,23.862 12.077,23.618 C12.128,23.495 12.201,23.385 12.293,23.293 L18.293,17.293 C18.684,16.902 19.316,16.902 19.707,17.293 C20.098,17.684 20.098,18.316 19.707,18.707 L15.414,23.000 L35.000,23.000 C35.552,23.000 36.000,23.448 36.000,24.000 C36.000,24.552 35.552,25.000 35.000,25.000 Z" class="cls-1"/>
</svg>
