<svg xmlns="http://www.w3.org/2000/svg" xmlns:xlink="http://www.w3.org/1999/xlink" preserveAspectRatio="xMidYMid" width="72" height="72" viewBox="0 0 48 48">
  <defs>
    <style>
      .cls-1 {
        fill: #1b1b1b;
        fill-rule: evenodd;
      }
    </style>
  </defs>
  <path d="M24.000,48.000 C10.767,48.000 0.000,37.233 0.000,24.000 C0.000,10.767 10.767,0.000 24.000,0.000 C37.233,0.000 48.000,10.767 48.000,24.000 C48.000,37.233 37.233,48.000 24.000,48.000 ZM24.000,2.000 C11.869,2.000 2.000,11.869 2.000,24.000 C2.000,36.131 11.869,46.000 24.000,46.000 C36.131,46.000 46.000,36.131 46.000,24.000 C46.000,11.869 36.131,2.000 24.000,2.000 ZM35.923,24.382 C35.872,24.505 35.799,24.615 35.706,24.708 L29.707,30.707 C29.512,30.902 29.256,31.000 29.000,31.000 C28.744,31.000 28.488,30.902 28.293,30.707 C27.902,30.316 27.902,29.684 28.293,29.293 L32.586,25.000 L13.000,25.000 C12.448,25.000 12.000,24.552 12.000,24.000 C12.000,23.448 12.448,23.000 13.000,23.000 L32.586,23.000 L28.293,18.707 C27.902,18.316 27.902,17.684 28.293,17.293 C28.684,16.902 29.316,16.902 29.707,17.293 L35.706,23.292 C35.799,23.385 35.872,23.495 35.923,23.618 C36.024,23.862 36.024,24.138 35.923,24.382 Z" class="cls-1"/>
</svg>
