<?xml version="1.0" encoding="UTF-8"?>
<!DOCTYPE svg PUBLIC "-//W3C//DTD SVG 1.1//EN" "http://www.w3.org/Graphics/SVG/1.1/DTD/svg11.dtd">
<!-- Creator: CorelDRAW 2017 -->
<svg xmlns="http://www.w3.org/2000/svg" xml:space="preserve"  version="1.1" style="shape-rendering:geometricPrecision; text-rendering:geometricPrecision; image-rendering:optimizeQuality; fill-rule:evenodd; clip-rule:evenodd"
viewBox="0 0 33773.18 13482.44"
 xmlns:xlink="http://www.w3.org/1999/xlink">
 <defs>
  <style type="text/css">
   <![CDATA[
    .fil0 {fill:#E31E24}
    .fil1 {fill:#D9DADA;fill-rule:nonzero}
   ]]>
  </style>
 </defs>
 <g id="Layer_x0020_1">
  <metadata id="CorelCorpID_0Corel-Layer"/>
  <path class="fil0" d="M16886.61 0l16886.57 7749.24c-4637.76,-1420.62 -10504.93,-2269.53 -16886.57,-2269.53 -6381.65,0 -12248.82,848.93 -16886.61,2269.55l16886.61 -7749.26zm0 1199.42l-8165.25 3747.04c2718.11,-318.28 5476.49,-465.67 8165.25,-465.67 2688.77,0 5447.14,147.39 8165.23,465.66l-8165.23 -3747.03z"/>
  <path class="fil1" d="M5647.8 7756.38l0 1337.19 1516.56 -1582.25c72.81,-76.36 134.96,-132.3 185.57,-168.71 51.5,-36.4 119.87,-55.05 204.22,-55.05 110.99,0 201.56,32.85 269.92,97.67 68.37,64.82 102.11,143.84 102.11,237.96 0,112.77 -57.71,224.64 -174.03,335.63l-938.52 888.8 1081.48 1550.3c76.36,107.43 134.07,201.55 172.25,282.35 38.18,79.91 56.83,158.94 56.83,235.3 0,84.35 -33.74,158.05 -100.34,221.09 -66.59,62.15 -157.16,93.23 -271.7,93.23 -107.43,0 -195.34,-23.09 -262.82,-69.26 -67.48,-45.28 -124.31,-106.55 -171.36,-182.91 -47.06,-76.36 -88.8,-145.61 -125.2,-207.77l-912.77 -1404.67 -632.2 605.55 0 788.47c0,159.82 -36.4,277.91 -109.21,355.16 -72.81,77.25 -166.93,115.43 -280.58,115.43 -66.59,0 -129.64,-17.76 -190.01,-52.39 -61.27,-34.63 -107.44,-80.8 -140.29,-140.29 -24.86,-47.94 -39.07,-104.77 -44.4,-168.7 -5.33,-63.93 -7.99,-157.16 -7.99,-277.92l0 -2835.1c0,-156.27 34.63,-272.59 103,-350.72 68.37,-78.14 161.6,-117.21 279.69,-117.21 115.43,0 209.55,38.18 281.47,115.43 71.92,77.25 108.32,195.34 108.32,353.39zm4203.38 1779.37l-270.81 0 0 1223.55c0,161.6 -35.52,279.69 -106.55,356.05 -71.03,76.36 -164.26,114.54 -277.92,114.54 -123.42,0 -219.31,-39.96 -286.79,-119.87 -67.48,-79.91 -101.22,-196.23 -101.22,-350.72l0 -2934.55c0,-166.04 37.29,-286.8 111.87,-361.38 74.59,-74.59 195.34,-111.88 361.38,-111.88l1256.4 0c173.14,0 321.42,7.1 444.84,22.2 123.42,15.09 234.41,44.39 332.97,89.68 119.87,50.61 225.53,122.53 317.87,215.76 91.46,94.12 161.6,203.33 208.66,326.75 47.95,124.31 71.92,255.72 71.92,395.12 0,284.13 -79.91,511.44 -240.62,681.92 -160.72,169.59 -404,290.35 -729.87,361.38 136.74,72.81 268.15,180.25 393.35,322.31 124.31,142.07 236.18,293.9 333.85,453.72 97.67,160.72 174.03,304.56 229.08,434.19 54.17,128.75 81.69,217.54 81.69,266.38 0,49.72 -15.98,99.44 -47.95,149.17 -31.96,49.72 -75.47,88.79 -131.41,117.2 -55.05,28.41 -119.86,42.62 -192.67,42.62 -86.13,0 -158.94,-20.42 -218.43,-61.27 -58.6,-40.84 -109.21,-92.34 -151.83,-154.49 -42.62,-62.16 -100.34,-154.5 -173.15,-275.26l-309.88 -514.98c-110.99,-188.24 -210.43,-332.08 -297.45,-430.64 -87.9,-99.45 -176.69,-166.93 -267.26,-203.33 -89.68,-36.41 -203.33,-54.17 -340.07,-54.17zm442.18 -1603.56l-712.99 0 0 1049.51 691.68 0c185.58,0 341.85,-15.99 468.82,-47.95 126.08,-31.96 222.86,-87.02 289.46,-164.26 66.59,-77.25 100.33,-183.8 100.33,-318.76 0,-106.55 -26.64,-199.78 -80.8,-280.58 -53.27,-80.8 -127.86,-141.18 -223.75,-181.14 -89.68,-38.18 -267.26,-56.82 -532.75,-56.82zm3000.26 2827.11l0 -1209.34 -931.42 -1442.86c-81.69,-130.52 -139.4,-231.74 -173.14,-304.55 -33.74,-72.81 -50.62,-135.85 -50.62,-190.01 0,-87.91 34.63,-164.27 103,-229.08 68.37,-63.93 152.72,-95.9 253.95,-95.9 105.66,0 185.57,30.19 240.62,89.68 54.16,59.49 135.85,178.47 245.06,356.94l713 1156.95 720.98 -1156.95c42.62,-71.03 79.02,-130.52 109.21,-179.36 29.3,-47.94 61.27,-93.23 97.67,-135.85 35.52,-42.62 74.59,-75.47 118.1,-97.67 43.5,-22.2 95.89,-33.74 158.93,-33.74 96.78,0 177.58,31.97 242.4,95.01 65.71,63.04 97.67,136.74 97.67,219.31 0,67.48 -15.98,135.85 -48.83,203.33 -32.86,67.49 -89.68,160.72 -169.59,280.58l-954.51 1464.17 0 1209.34c0,158.04 -36.4,275.25 -109.21,353.39 -72.81,78.13 -166.04,117.2 -277.92,117.2 -114.54,0 -207.77,-38.18 -278.8,-115.43 -71.04,-77.25 -106.55,-195.34 -106.55,-355.16zm3957.42 -1079.7l-707.66 0 0 1079.7c0,154.49 -36.41,270.81 -109.22,350.72 -72.81,79.91 -165.15,119.87 -275.25,119.87 -116.32,0 -210.43,-39.07 -281.47,-118.09 -71.03,-79.03 -106.55,-195.34 -106.55,-347.18l0 -2939.87c0,-169.59 39.07,-291.24 117.21,-364.05 78.13,-72.8 201.55,-109.21 372.03,-109.21l990.91 0c293.01,0 518.54,22.2 676.59,67.48 156.27,43.51 291.24,115.43 404.89,215.77 113.65,101.22 199.78,223.75 258.38,369.37 59.49,145.61 88.79,309.88 88.79,491.9 0,388.9 -119.87,682.8 -358.71,883.47 -239.74,199.78 -595.79,300.12 -1069.94,300.12zm-187.35 -1747.41l-520.31 0 0 1166.71 520.31 0c182.02,0 334.74,-19.53 457.28,-57.71 121.64,-38.18 214.87,-100.34 279.69,-187.35 63.93,-86.13 95.89,-200.67 95.89,-340.96 0,-168.7 -49.72,-305.44 -148.28,-411.1 -110.99,-112.77 -339.18,-169.59 -684.58,-169.59zm4738.78 58.6l-842.62 0 0 2768.51c0,159.82 -35.52,277.91 -107.44,355.16 -71.03,77.25 -163.38,115.43 -276.14,115.43 -114.54,0 -208.66,-39.07 -280.58,-117.2 -71.92,-78.14 -108.33,-195.35 -108.33,-353.39l0 -2768.51 -842.63 0c-132.29,0 -229.96,-29.3 -293.89,-87.02 -63.93,-58.6 -96.79,-135.85 -96.79,-231.74 0,-98.56 33.74,-176.7 100.34,-234.41 66.59,-57.72 163.37,-86.13 290.34,-86.13l2457.74 0c134.08,0 232.64,29.3 298.34,88.79 64.82,59.49 97.67,136.74 97.67,231.75 0,95.89 -33.74,173.14 -99.44,231.74 -65.71,57.72 -164.27,87.02 -296.57,87.02zm3364.3 -42.62l-1740.3 0 0 937.63 1602.68 0c118.09,0 205.99,26.64 263.71,79.03 58.6,52.38 87.01,122.53 87.01,208.66 0,86.12 -28.41,157.16 -85.24,211.32 -57.71,54.16 -145.62,81.69 -265.48,81.69l-1602.68 0 0 1086.8 1799.79 0c121.65,0 213.1,28.41 274.37,84.35 62.15,55.94 93.23,131.41 93.23,224.64 0,89.68 -31.08,163.38 -93.23,219.32 -61.27,55.94 -152.72,84.35 -274.37,84.35l-2099.02 0c-167.82,0 -288.57,-37.29 -362.27,-111.88 -73.7,-74.58 -110.99,-195.34 -110.99,-361.38l0 -2867.95c0,-110.99 16.87,-201.56 49.73,-271.7 32.85,-70.15 84.35,-121.65 154.49,-153.61 70.15,-31.97 159.83,-47.95 269.04,-47.95l2039.53 0c123.42,0 214.88,27.53 274.37,81.69 59.49,55.05 89.68,126.97 89.68,214.87 0,90.57 -30.19,163.38 -89.68,218.43 -59.49,54.16 -150.95,81.69 -274.37,81.69zm900.34 2476.38l853.29 -1244.85 -718.32 -1109c-67.49,-107.44 -118.1,-199.78 -151.84,-277.03 -33.74,-77.25 -50.61,-150.94 -50.61,-222.86 0,-72.81 31.97,-137.63 97.67,-196.23 64.82,-57.72 143.84,-87.02 237.96,-87.02 107.44,0 190.9,31.97 250.39,95.01 60.38,63.04 142.96,181.13 248.62,352.5l572.7 926.98 611.77 -926.98c49.73,-78.14 93.23,-144.73 128.75,-199.78 35.52,-55.94 69.26,-102.11 102.11,-138.52 33.74,-36.4 70.14,-63.92 110.99,-81.68 40.84,-18.65 87.9,-27.53 142.06,-27.53 96.79,0 175.81,29.3 237.96,87.02 61.27,58.6 92.35,126.97 92.35,206.88 0,116.32 -66.6,274.37 -200.67,474.15l-752.06 1124.09 809.77 1244.85c72.81,109.22 125.2,199.78 158.05,271.7 32.85,71.93 49.73,139.41 49.73,203.34 0,61.26 -15.1,116.31 -44.4,166.92 -29.3,49.73 -71.03,89.68 -124.31,118.98 -54.16,29.31 -114.54,44.4 -182.91,44.4 -72.81,0 -134.07,-15.09 -184.68,-45.28 -49.73,-30.19 -90.57,-68.37 -121.65,-112.77 -31.07,-45.28 -89.68,-133.19 -174.92,-262.82l-671.26 -1054.84 -712.99 1085.92c-55.05,87.01 -94.12,147.39 -118.09,182.02 -23.09,34.63 -51.5,68.37 -84.35,101.22 -32.86,32.85 -71.93,58.6 -117.21,78.14 -45.28,18.64 -97.67,28.41 -158.93,28.41 -93.24,0 -171.37,-28.41 -232.64,-86.13 -61.26,-56.82 -92.34,-140.29 -92.34,-249.5 0,-127.86 63.04,-285.02 190.01,-469.71z"/>
  <path class="fil1" d="M16434.98 3491.83l0 457.73 -1189.46 -705.09 0 -392.03 1189.46 -705.09 0 461.04 -828.91 436.75 828.91 446.69zm735.63 -1353.87l-331.08 1864.06c-11.3,61.84 -20.99,110.43 -29.06,145.76 -8.48,35.34 -21,63.5 -37.96,83.38 -16.96,19.88 -41.59,29.81 -73.88,29.81 -80.35,0 -120.73,-47.48 -120.73,-142.45 0,-24.85 8.08,-86.69 23.82,-186.07l329.87 -1864.06c17.36,-99.38 33.92,-167.3 49.66,-203.74 16.15,-36.99 46.83,-55.21 92.46,-55.21 39.57,0 69.85,12.7 90.44,38.65 21,25.95 31.49,61.84 31.49,107.11 0,33.13 -8.47,93.87 -25.03,182.76zm1357.01 1106.51l-1189.45 708.41 0 -457.74 831.33 -446.68 -831.33 -440.07 0 -454.41 1189.45 702.33 0 388.16z"/>
  <path class="fil1" d="M5515.8 13461.33l122.8 -556.41c30.69,-130.47 51.8,-253.26 74.82,-399.08l3.84 0c15.35,147.73 36.46,268.61 61.4,399.08l109.36 556.41 316.58 0 333.85 -1293.18 -297.39 0 -105.53 529.55c-26.86,153.5 -55.64,305.07 -74.83,448.97l-3.84 0c-19.18,-143.9 -40.29,-282.04 -69.07,-433.62l-103.61 -544.9 -310.82 0 -109.36 529.55c-32.62,159.25 -63.32,314.66 -84.42,454.73l-3.84 0c-21.11,-130.47 -47.97,-297.4 -76.75,-450.89l-97.85 -533.39 -312.74 0 306.99 1293.18 320.41 0zm3618.88 -784.73l-475.82 0 0 -268.61 504.6 0 0 -239.84 -798.16 0 0 1293.18 825.03 0 0 -239.83 -531.47 0 0 -306.99 475.82 0 0 -237.91zm1930.46 778.97c65.24,9.6 172.68,19.19 316.58,19.19 257.1,0 414.43,-42.21 508.45,-117.04 80.58,-65.23 134.3,-157.33 134.3,-274.37 0,-166.92 -109.36,-278.2 -257.1,-318.49l0 -3.84c145.82,-53.72 212.97,-161.17 212.97,-276.29 0,-117.04 -65.23,-205.29 -155.41,-253.26 -94.01,-55.64 -203.38,-72.91 -381.81,-72.91 -145.82,0 -301.23,11.51 -377.98,26.86l0 1270.15zm289.72 -1076.36c24.94,-3.84 61.4,-7.68 124.71,-7.68 132.39,0 207.22,51.8 207.22,149.66 0,95.93 -82.51,159.25 -236,159.25l-95.93 0 0 -301.23zm0 510.36l99.77 0c145.82,0 262.86,51.8 262.86,182.27 0,136.23 -117.04,186.11 -249.43,186.11 -49.89,0 -84.42,0 -113.2,-3.84l0 -364.54zm2494.55 512.28c72.91,40.29 218.72,78.67 366.46,78.67 354.95,0 521.88,-184.19 521.88,-401 0,-182.28 -107.45,-301.23 -335.77,-385.65 -166.92,-63.32 -239.83,-99.77 -239.83,-182.28 0,-67.15 61.4,-124.71 188.03,-124.71 126.63,0 218.72,36.45 270.53,61.4l65.23 -236c-76.74,-34.53 -184.19,-65.23 -330.01,-65.23 -305.06,0 -489.26,168.84 -489.26,389.49 0,188.02 140.07,306.98 354.96,381.81 155.41,55.64 216.8,101.69 216.8,182.27 0,84.42 -70.99,140.06 -205.29,140.06 -124.71,0 -245.59,-40.29 -324.26,-80.58l-59.47 241.75zm3010.67 59.48l293.55 0 0 -1047.59 353.04 0 0 -245.59 -993.87 0 0 245.59 347.28 0 0 1047.59zm2475.36 -1293.18l0 721.42c0,412.51 191.87,592.87 518.04,592.87 337.69,0 539.14,-189.95 539.14,-589.03l0 -725.26 -291.63 0 0 744.44c0,228.32 -84.42,335.77 -237.92,335.77 -149.65,0 -234.07,-113.2 -234.07,-335.77l0 -744.44 -293.56 0zm2985.73 1287.42c72.91,9.6 180.36,19.19 331.93,19.19 253.26,0 460.48,-53.72 596.7,-166.92 124.72,-105.53 214.89,-276.29 214.89,-523.8 0,-228.32 -84.42,-387.57 -218.72,-487.34 -124.72,-94.01 -283.97,-138.14 -529.55,-138.14 -147.74,0 -287.8,9.59 -395.25,26.86l0 1270.15zm293.56 -1061.01c24.94,-5.76 67.15,-11.52 132.38,-11.52 251.35,0 408.68,141.98 406.76,410.6 0,308.9 -172.68,454.72 -437.45,452.8 -36.46,0 -76.75,0 -101.69,-5.76l0 -846.12zm2717.11 -226.41l0 1293.18 293.56 0 0 -1293.18 -293.56 0zm2791.94 -21.1c-381.81,0 -629.32,289.72 -629.32,677.28 0,368.39 224.49,658.11 608.22,658.11 377.97,0 635.07,-257.11 635.07,-681.13 0,-356.87 -216.8,-654.26 -613.97,-654.26zm-7.67 232.16c201.46,0 312.74,199.54 312.74,431.69 0,251.35 -113.2,439.38 -310.82,439.38 -195.71,0 -314.66,-178.44 -314.66,-431.7 0,-251.35 115.12,-439.37 312.74,-439.37z"/>
 </g>
</svg>
